<?xml version="1.0" encoding="utf-8"?>
<!-- Generator: Adobe Illustrator 23.1.1, SVG Export Plug-In . SVG Version: 6.00 Build 0)  -->
<svg version="1.1" id="Calque_1" xmlns="http://www.w3.org/2000/svg" xmlns:xlink="http://www.w3.org/1999/xlink" x="0px" y="0px"
	 viewBox="0 0 36 24" style="enable-background:new 0 0 36 24;" xml:space="preserve">
<style type="text/css">
	.st0{fill:#FFFFFF;}
</style>
<path class="st0" d="M13.4,7.2V5.1c0.2,0,0.4,0,0.6,0c5.9-0.2,9.7,5,9.7,5s-4.2,5.8-8.6,5.8c-0.6,0-1.2-0.1-1.7-0.3V9.1
	c2.3,0.3,2.8,1.3,4.1,3.6l3.1-2.6c0,0-2.2-2.9-6-2.9C14.2,7.1,13.8,7.2,13.4,7.2 M13.4,0.1v3.2c0.2,0,0.4,0,0.6,0
	C22.2,3,27.6,10,27.6,10s-6.1,7.5-12.5,7.5c-0.6,0-1.1-0.1-1.6-0.1v2c0.4,0.1,0.9,0.1,1.4,0.1c5.9,0,10.2-3,14.4-6.6
	c0.7,0.6,3.5,1.9,4.1,2.5c-4,3.3-13.2,6-18.4,6c-0.5,0-1,0-1.5-0.1v2.8H36v-24H13.4z M13.4,15.6v1.7c-5.5-1-7-6.7-7-6.7
	s2.6-2.9,7-3.4v1.9l0,0C11.1,8.8,9.3,11,9.3,11S10.3,14.5,13.4,15.6 M3.7,10.3c0,0,3.3-4.8,9.7-5.3V3.3C6.2,3.9,0,10,0,10
	s3.5,10.2,13.4,11.1v-1.9C6.2,18.4,3.7,10.3,3.7,10.3z"/>
</svg>
