<?xml version="1.0" encoding="utf-8"?>
<!-- Generator: Adobe Illustrator 23.1.1, SVG Export Plug-In . SVG Version: 6.00 Build 0)  -->
<svg version="1.1" id="Layer_1" xmlns="http://www.w3.org/2000/svg" xmlns:xlink="http://www.w3.org/1999/xlink" x="0px" y="0px"
	 viewBox="0 0 366 146.4" style="enable-background:new 0 0 366 146.4;" xml:space="preserve">
<style type="text/css">
	.st0{fill:#82BC00;}
</style>
<path id="XMLID_7_" d="M360.5,96.4v-1h0.6c0.4,0,0.8,0,0.8,0.5s-0.2,0.5-0.7,0.5H360.5 M360.5,97.1h0.4l1,1.8h1.1l-1.1-1.8
	c0.6,0,1-0.3,1-1.1c0-1-0.7-1.3-1.8-1.3h-1.6v4.2h0.9v-1.8 M365.2,96.8c0-2.5-1.9-3.9-4-3.9s-4.1,1.4-4.1,3.9s1.9,3.9,4.1,3.9
	C363.4,100.7,365.2,99.3,365.2,96.8 M364,96.8c0,1.8-1.3,3-2.9,3l0,0c-1.6,0-2.9-1.2-2.9-3s1.3-3,2.9-3S364,95,364,96.8z"/>
<path id="XMLID_16_" d="M216.8,55.2v44.2h12.5V55.2L216.8,55.2z M118.6,55.1v44.2h12.6V65h9.8c3.2,0,5.5,0.8,7,2.4
	c2,2.1,2.8,5.5,2.8,11.7v20.2h12.2V74.9c0-17.4-11.1-19.8-22-19.8L118.6,55.1L118.6,55.1z M236.9,55.2v44.2h20.2
	c10.8,0,14.3-1.8,18.1-5.8c2.7-2.8,4.4-9,4.4-15.8c0-6.2-1.5-11.7-4-15.2c-4.6-6.2-11.3-7.4-21.2-7.4L236.9,55.2L236.9,55.2z
	 M249.2,64.8h5.4c7.8,0,12.8,3.5,12.8,12.6c0,9.1-5,12.6-12.8,12.6h-5.4V64.8z M198.9,55.2l-10.4,35l-10-35H165l14.2,44.2h18
	l14.4-44.2L198.9,55.2L198.9,55.2z M285.5,99.3H298V55.1h-12.5V99.3z M320.5,55.2l-17.4,44.1h12.3l2.8-7.8h20.6l2.6,7.8h13.4
	l-17.6-44.1H320.5z M328.5,63.2l7.6,20.7h-15.4L328.5,63.2z"/>
<path id="XMLID_21_" class="st0" d="M38.2,62.5v-6.1c0.6,0,1.2-0.1,1.8-0.1c16.6-0.5,27.5,14.3,27.5,14.3S55.7,87,43.1,87
	c-1.8,0-3.4-0.3-4.9-0.8V67.8c6.5,0.8,7.8,3.6,11.7,10.1l8.7-7.3c0,0-6.3-8.3-17-8.3C40.3,62.3,39.2,62.4,38.2,62.5 M38.2,42.5v9.1
	c0.6,0,1.2-0.1,1.8-0.1c23.1-0.8,38.2,19,38.2,19s-17.3,21-35.3,21c-1.7,0-3.2-0.2-4.7-0.4v5.6c1.2,0.2,2.5,0.3,3.9,0.3
	c16.8,0,28.9-8.6,40.7-18.7c1.9,1.6,9.9,5.4,11.6,7c-11.2,9.3-37.2,16.9-52,16.9c-1.4,0-2.8-0.1-4.1-0.2v7.9h63.8V42.6L38.2,42.5
	L38.2,42.5z M38.2,86.2V91c-15.5-2.8-19.8-18.9-19.8-18.9s7.4-8.3,19.8-9.6v5.3l0,0c-6.5-0.8-11.6,5.3-11.6,5.3S29.4,83.3,38.2,86.2
	 M10.7,71.4c0,0,9.2-13.6,27.6-15v-4.9C17.9,53.1,0.3,70.4,0.3,70.4s10,28.8,37.9,31.5v-5.2C17.7,94,10.7,71.4,10.7,71.4z"/>
</svg>
